<?xml version="1.0" encoding="utf-8"?>
<!-- Generator: Adobe Illustrator 14.0.0, SVG Export Plug-In . SVG Version: 6.00 Build 43363)  -->
<!DOCTYPE svg PUBLIC "-//W3C//DTD SVG 1.1//EN" "http://www.w3.org/Graphics/SVG/1.1/DTD/svg11.dtd">
<svg version="1.1" id="Layer_1" xmlns="http://www.w3.org/2000/svg" xmlns:xlink="http://www.w3.org/1999/xlink" x="0px" y="0px"
	 width="202.034px" height="89.104px" viewBox="0 0 202.034 89.104" enable-background="new 0 0 202.034 89.104"
	 xml:space="preserve">
<path fill="#010101" d="M164.747,57.886c0.435-1.731,0.662-3.502,0.662-5.305c0-19.88-27.395-35.997-61.189-35.997
	c-33.793,0-61.189,16.117-61.189,35.997c0,1.803,0.228,3.574,0.663,5.305H164.747z"/>
<path fill="#F6D99E" d="M45.957,46.821c4.535-15.455,28.771-28.084,58.263-28.084c29.493,0,53.328,11.845,58.211,27.928l0.872,0.156
	c-4.218-16.123-29.061-28.503-59.083-28.503c-30.021,0-54.865,12.38-59.082,28.503H45.957z"/>
<g>
	<path fill="#010101" d="M145.012,78.486c12.279,0,16.013,4.795,18.85,5.687c2.005,0.63,3.529,0.23,4.978-0.722
		c0.027,0.885,0.539,3.476,3.355,3.529c3.133,0.059,3.354-3.081,3.354-3.081c12.608-0.122,19.693-5.113,22.936-9.665
		c3.2-4.492,5.036-12.992,2-20.359c-2.927-7.099-8.832-8.854-8.832-8.854c-3.935-1.324-5.728,1.895-5.728,1.895h-85.03H98H16.108
		c0,0-1.794-3.219-5.727-1.895c0,0-5.905,1.755-8.832,8.854c-3.036,7.367-1.201,15.867,2.001,20.359
		c3.243,4.552,10.327,9.542,22.937,9.665c0,0,0.219,3.141,3.352,3.081c2.817-0.052,3.328-2.642,3.355-3.529
		c1.45,0.951,2.974,1.353,4.977,0.722c2.838-0.891,6.57-5.792,18.85-5.792l39.998,0.046c0,0-1.363,0.307-1.476,2.146
		c-0.114,1.839,0.822,2.989,2.724,2.989c2.033,0,2.75-1.727,2.769-1.684c0.162,0.381,0.555,1.87,3.023,1.759
		c2.271-0.102,2.543-2.065,2.498-3.004c-0.032-0.647-0.397-1.693-0.794-1.931"/>
	<path fill="#F6D99E" d="M16.101,47.858c0,0,0.382,0.506,0.372,0.815c1.005,0,56.229,0,56.229,0h112.75c0,0,0.069-0.515,0.466-0.815
		H16.101z"/>
	<path fill="#F6D99E" d="M94.036,78.168c0,0,5.602-2.484,6.426,1.324c0.667,3.56-2.329,3.479-2.329,3.479s-2.105-0.053-2.057-2.204
		c0.043-1.928,1.599-1.981,1.599-1.981s1.431-0.049,1.37,1.495c0,0-0.003,0.912-0.818,1.023c-0.742,0.101-0.767-0.749-0.767-0.749
		s-0.023-0.573,0.355-0.625c0.405-0.056,0.523,0.743,0.523,0.743s0.283-0.102,0.295-0.424c0.016-0.393-0.257-0.974-0.873-0.976
		c-1.233-0.005-1.621,1.95-0.626,2.708c0.596,0.456,2.801,0.629,2.915-1.683C100.173,77.836,97.275,76.846,94.036,78.168z"/>
	<path fill="#F6D99E" d="M108.001,78.168c0,0-5.603-2.484-6.427,1.324c-0.667,3.56,2.329,3.479,2.329,3.479s2.105-0.053,2.055-2.204
		c-0.042-1.928-1.598-1.981-1.598-1.981s-1.431-0.049-1.371,1.495c0,0,0.004,0.912,0.818,1.023c0.743,0.101,0.767-0.749,0.767-0.749
		s0.023-0.573-0.356-0.625c-0.405-0.056-0.522,0.743-0.522,0.743s-0.283-0.102-0.296-0.424c-0.015-0.393,0.256-0.974,0.873-0.976
		c1.233-0.005,1.621,1.95,0.626,2.708c-0.596,0.456-2.8,0.629-2.915-1.683C101.864,77.836,104.761,76.846,108.001,78.168z"/>
	<g>
		<path fill="#F6D99E" d="M15.134,49.802c-0.238,0.613-0.871,1.243-2.02,0.602c-0.153-0.085,1.353-0.069,1.128-1.624
			c-0.195-1.348-2.706-1.545-2.99,0.677c-0.271,2.126,1.466,2.57,2.538,2.502c1.239-0.079,2.765-1.624,2.143-3.854
			c-0.682-2.456-3.497-3.448-6.599-1.826c0,0-9.251,4.057-8.405,17.988c0,0,0.451,9.468,8.123,13.932c0,0,7.728,5.613,20.702,4.464
			c-0.226-0.474-0.62-0.474-0.902-0.541c-0.283-0.068-13.651,1.353-22.338-6.965c-4.343-4.194-5.852-12.823-3.948-18.53
			c2.144-6.425,6.712-10.009,9.646-10.145c2.481-0.203,2.989,1.963,2.989,1.963S15.411,49.088,15.134,49.802z"/>
		<path fill="#F6D99E" d="M11.479,48.24c0,0-7.784,4.328-8.235,14.81c-0.452,10.482,7.502,18.801,22.844,19.07
			c-4.23-0.405-22.844-2.028-22.112-18.732c0,0-0.425-7.807,7.077-13.827C11.053,49.11,11.197,48.658,11.479,48.24z"/>
		<path fill="#F6D99E" d="M27.841,81.91c0,0,0.887-1.7,2.907-0.85c0,0,1.801,0.763,1.383,3.061
			c-0.425,2.337-2.836,1.827-2.836,1.827s-1.454-0.127-1.809-2.083c-0.035-0.339,0.568-0.85,0.922-0.127
			c0.354,0.722,2.197,1.02,2.197-0.297C30.605,82.204,29.968,81.697,27.841,81.91z"/>
		<path fill="#F6D99E" d="M25.129,81.782c0,0,1.241-0.068,2.087-1.015c0.847-0.946,3.215-1.556,5.133,0
			c1.918,1.556,5.697,3.043,7.615-1.42c0.282-0.676,0.846-0.135,0.621,0.946c-0.274,1.313-1.805,3.585-4.852,3.246
			c-2.899-0.321-4.851-4.531-7.615-2.298C27.273,81.782,26.483,82.121,25.129,81.782z"/>
	</g>
	<path fill="#F6D99E" d="M40.932,81.823c0,0,5.389-4.033,13.996-4.098c7.389-0.057,31.471,0,31.471,0h7.604
		c0,0,1.236-0.562,2.25-0.677c-4.056,0-30.386,0-30.386,0h-9.822c0,0-7.89-0.38-14.544,3.496
		C41.311,81.04,41.06,81.657,40.932,81.823z"/>
	<path fill="#F6D99E" d="M161.47,81.823c0,0-5.388-4.033-13.996-4.098c-7.39-0.057-31.471,0-31.471,0h-7.604
		c0,0-1.235-0.562-2.25-0.677c4.057,0,30.387,0,30.387,0h9.822c0,0,7.89-0.38,14.544,3.496
		C161.091,81.04,161.343,81.657,161.47,81.823z"/>
	<g>
		<path fill="#F6D99E" d="M186.944,49.802c0.238,0.613,0.872,1.243,2.021,0.602c0.152-0.085-1.353-0.069-1.129-1.624
			c0.195-1.348,2.706-1.545,2.99,0.677c0.272,2.126-1.466,2.57-2.539,2.502c-1.238-0.079-2.763-1.624-2.143-3.854
			c0.683-2.456,3.498-3.448,6.599-1.826c0,0,9.251,4.057,8.406,17.988c0,0-0.451,9.468-8.125,13.932c0,0-7.728,5.613-20.7,4.464
			c0.226-0.474,0.621-0.474,0.903-0.541c0.281-0.068,13.65,1.353,22.336-6.965c4.343-4.194,5.852-12.823,3.949-18.53
			c-2.143-6.425-6.712-10.009-9.646-10.145c-2.482-0.203-2.99,1.963-2.99,1.963S186.669,49.088,186.944,49.802z"/>
		<path fill="#F6D99E" d="M190.6,48.24c0,0,7.784,4.328,8.234,14.81c0.452,10.482-7.501,18.801-22.845,19.07
			c4.231-0.405,22.845-2.028,22.112-18.732c0,0,0.426-7.807-7.076-13.827C191.025,49.11,190.882,48.658,190.6,48.24z"/>
		<path fill="#F6D99E" d="M174.239,81.91c0,0-0.887-1.7-2.908-0.85c0,0-1.801,0.763-1.383,3.061
			c0.426,2.337,2.836,1.827,2.836,1.827s1.455-0.127,1.808-2.083c0.037-0.339-0.567-0.85-0.921-0.127
			c-0.356,0.722-2.198,1.02-2.198-0.297C171.473,82.204,172.111,81.697,174.239,81.91z"/>
		<path fill="#F6D99E" d="M176.95,81.782c0,0-1.241-0.068-2.088-1.015c-0.844-0.946-3.214-1.556-5.133,0
			c-1.918,1.556-5.697,3.043-7.615-1.42c-0.282-0.676-0.846-0.135-0.62,0.946c0.273,1.313,1.805,3.585,4.851,3.246
			c2.899-0.321,4.851-4.531,7.615-2.298C174.806,81.782,175.595,82.121,176.95,81.782z"/>
	</g>
</g>
<g>
	<path fill="#010101" d="M50.091,14.644l5.084,0.627l0.837-0.867l-1.299-2.874l6.598,2.65l0.447-3.136l-0.921-2.667l6.079,3.307
		l0.476-3.896l-0.496-2.026c0,0,5.14,4.713,5.769,2.454c0.628-2.259,0.646-2.692,0.55-3.023c-0.095-0.33,1.104-0.607,1.104-0.607
		s4.547,5.183,5.479,0.653c-0.019-2.285-0.356-3.052-0.356-3.052l3.038,3.486c0,0,1.851,2.357,2.717-0.435
		c0.864-2.794,0.994-3.333,0.994-3.333l2.716-0.435c0,0,2.286,4.985,2.971,4.034c0.686-0.952,2.014-4.487,2.014-4.487l0.755-0.421
		c0,0,1.739,5.63,3.04,5.465c1.302-0.167,1.705-5.53,1.705-5.53s2.396,5.585,2.943,5.39c0.547-0.196,2.125-5.461,2.125-5.461
		s1.554,5.28,2.308,5.311c0.756,0.03,2.896-4.996,2.896-4.996s1.963,4.971,2.291,4.876c0.328-0.095,2.775-4.674,2.775-4.674
		s0.803,4.271,1.997,4.103c1.195-0.169,4.138-3.641,4.138-3.641l2.295,0.274l1.597,5.1l4.478-4.063c0,0-0.051,4.022,0.576,4.591
		c0.625,0.569,6.284-3.338,6.284-3.338s-0.205,5.212,0.438,5.347c0.642,0.135,5.886-3.889,5.886-3.889s-1.323,5.921-0.34,5.633
		c0.984-0.286,6.696-3.041,6.696-3.041s-0.749,5.562-0.218,5.8c0.53,0.239,6.036-2.001,6.036-2.001s-1,3.281,0.083,3.215
		c1.082-0.065,5.347,0.407,5.347,0.407l-32.377,38.761l-1.8-1.038l0.661-2.922l-2.629,0.982l-0.79-1.881l-2.32,1.322l-2.5-2.275
		l-1.825-0.291l-4.151,1.249l-2.166-2.588l-2.034,2.312l-1.173-3.091l-2.483,2.727l-1.302-2.553l-1.831,2.647l-1.946-2.689
		l-1.309,3.102l-2.585-5.649c0,0-0.217,5.538-0.458,6.18c-0.242,0.643-1.38,1.466-2.13,1.328c-0.75-0.139-3.807-2.634-3.807-2.634
		l-0.535,1.156l-1.325-1.658l-1.213,3.08l-0.993-3.408l-0.023,4.564l-2.756-1.307l0.043,2.839l-2.609-0.764L50.091,14.644z"/>
	<path fill="#F6D99E" d="M53.963,11.929l2.918,4.13c0,0,0.236,0.257,0.481,0.137c0.246-0.12,0.018-0.511,0.018-0.511l-2.667-4.155
		c0,0-0.227-0.391-0.612-0.188C53.74,11.535,53.932,11.834,53.963,11.929z"/>
	<path fill="#F6D99E" d="M60.043,8.682l2.399,4.455c0,0,0.204,0.285,0.462,0.197c0.259-0.091,0.08-0.506,0.08-0.506l-2.147-4.45
		c0,0-0.179-0.417-0.586-0.261C59.87,8.262,60.024,8.582,60.043,8.682z"/>
	<path fill="#F6D99E" d="M66.085,6.015l2.112,4.602c0,0,0.184,0.296,0.447,0.225c0.266-0.072,0.113-0.5,0.113-0.5l-1.86-4.58
		c0,0-0.152-0.428-0.568-0.298C65.939,5.584,66.072,5.915,66.085,6.015z"/>
	<path fill="#F6D99E" d="M72.532,3.886l1.489,4.843c0,0,0.145,0.318,0.416,0.283c0.271-0.037,0.177-0.48,0.177-0.48l-1.246-4.789
		c0,0-0.094-0.443-0.524-0.371C72.442,3.44,72.532,3.784,72.532,3.886z"/>
	<path fill="#F6D99E" d="M79.082,2.666l1,4.969c0,0,0.111,0.332,0.384,0.323c0.274-0.008,0.225-0.46,0.225-0.46l-0.762-4.888
		c0,0-0.051-0.452-0.484-0.423C79.037,2.214,79.091,2.566,79.082,2.666z"/>
	<g>
		<path fill="#F6D99E" d="M94.222,1.02l0.302,5.06c0,0,0.063,0.345,0.335,0.374c0.273,0.03,0.286-0.423,0.286-0.423l-0.077-4.949
			c0,0,0.013-0.455-0.421-0.486C94.241,0.565,94.247,0.921,94.222,1.02z"/>
		<path fill="#F6D99E" d="M99.392,0.53l0.302,5.061c0,0,0.065,0.345,0.336,0.374c0.272,0.03,0.286-0.424,0.286-0.424l-0.078-4.949
			c0,0,0.014-0.454-0.421-0.486C99.412,0.076,99.417,0.432,99.392,0.53z"/>
		<path fill="#F6D99E" d="M104.459,0.459l0.049,5.07c0,0,0.047,0.347,0.316,0.391c0.271,0.043,0.306-0.409,0.306-0.409l0.172-4.947
			c0,0,0.036-0.453-0.396-0.506C104.501,0.007,104.489,0.364,104.459,0.459z"/>
		<path fill="#F6D99E" d="M109.472,0.407l0.049,5.068c0,0,0.048,0.348,0.316,0.391c0.27,0.044,0.306-0.409,0.306-0.409l0.172-4.946
			c0,0,0.035-0.452-0.396-0.507C109.515-0.046,109.501,0.31,109.472,0.407z"/>
		<path fill="#F6D99E" d="M114.284,0.578l-0.193,5.068c0,0,0.03,0.349,0.298,0.407c0.269,0.057,0.326-0.393,0.326-0.393l0.406-4.936
			c0,0,0.057-0.45-0.373-0.525C114.347,0.127,114.316,0.482,114.284,0.578z"/>
	</g>
	<g>
		<path fill="#F6D99E" d="M129.18,1.96l-0.657,5.028c0,0-0.001,0.352,0.261,0.433c0.262,0.082,0.359-0.36,0.359-0.36L130,2.184
			c0,0,0.097-0.442-0.323-0.558C129.282,1.517,129.221,1.869,129.18,1.96z"/>
		<path fill="#F6D99E" d="M135.645,3.622L134.46,8.55c0,0-0.037,0.348,0.214,0.457c0.253,0.109,0.396-0.321,0.396-0.321l1.367-4.755
			c0,0,0.145-0.43-0.261-0.589C135.795,3.193,135.695,3.535,135.645,3.622z"/>
		<path fill="#F6D99E" d="M141.855,5.672l-1.776,4.745c0,0-0.081,0.341,0.155,0.48c0.237,0.14,0.433-0.269,0.433-0.269l1.938-4.551
			c0,0,0.195-0.408-0.189-0.617C142.056,5.263,141.916,5.592,141.855,5.672z"/>
		<path fill="#F6D99E" d="M148.191,8.205l-2.259,4.53c0,0-0.116,0.332,0.105,0.496c0.22,0.163,0.458-0.223,0.458-0.223l2.398-4.321
			c0,0,0.237-0.385-0.123-0.633C148.434,7.82,148.26,8.131,148.191,8.205z"/>
		<path fill="#F6D99E" d="M154.589,11.852l-2.736,4.255c0,0-0.152,0.315,0.051,0.502s0.48-0.17,0.48-0.17l2.853-4.031
			c0,0,0.277-0.357-0.053-0.642C154.871,11.498,154.666,11.789,154.589,11.852z"/>
	</g>
	<path fill="#F6D99E" d="M79.097,50.586l2.68,3.549c0,0,0.249,0.246,0.488,0.113c0.241-0.132-0.006-0.511-0.006-0.511l-2.433-3.588
		c0,0-0.246-0.379-0.621-0.156C78.854,50.202,79.061,50.492,79.097,50.586z"/>
	<path fill="#F6D99E" d="M80.537,49.796l2.479,3.695c0,0,0.234,0.258,0.48,0.138c0.247-0.117,0.021-0.51,0.021-0.51l-2.229-3.718
		c0,0-0.226-0.393-0.611-0.19C80.317,49.4,80.507,49.7,80.537,49.796z"/>
	<path fill="#F6D99E" d="M82.27,48.998l1.934,3.889c0,0,0.195,0.282,0.451,0.203c0.256-0.079,0.087-0.486,0.087-0.486l-1.687-3.877
		c0,0-0.168-0.407-0.571-0.269C82.107,48.587,82.253,48.901,82.27,48.998z"/>
	<path fill="#F6D99E" d="M128.921,49.967l-2.59,3.616c0,0-0.242,0.252-0.485,0.126s-0.006-0.512-0.006-0.512l2.341-3.648
		c0,0,0.237-0.385,0.618-0.171C129.154,49.577,128.955,49.872,128.921,49.967z"/>
	<path fill="#F6D99E" d="M127.576,49.218l-2.419,3.734c0,0-0.231,0.262-0.479,0.148c-0.249-0.115-0.031-0.512-0.031-0.512
		l2.168-3.752c0,0,0.221-0.397,0.61-0.201C127.79,48.818,127.605,49.122,127.576,49.218z"/>
	<path fill="#F6D99E" d="M126.083,48.535l-2.208,3.865c0,0-0.215,0.275-0.47,0.175c-0.254-0.101-0.058-0.509-0.058-0.509
		l1.958-3.869c0,0,0.196-0.409,0.597-0.236C126.272,48.124,126.107,48.438,126.083,48.535z"/>
	<path fill="#F6D99E" d="M123.828,47.772l-1.339,4.135c0,0-0.152,0.308-0.417,0.268c-0.264-0.039-0.159-0.467-0.159-0.467
		l1.099-4.085c0,0,0.106-0.43,0.524-0.352C123.929,47.341,123.831,47.675,123.828,47.772z"/>
	<path fill="#F6D99E" d="M121.472,47.185l-0.602,4.306c0,0-0.095,0.329-0.364,0.335c-0.268,0.009-0.236-0.433-0.236-0.433
		l0.371-4.215c0,0,0.03-0.441,0.458-0.438C121.496,46.744,121.457,47.088,121.472,47.185z"/>
	<path fill="#F6D99E" d="M84.705,48.146l1.362,4.127c0,0,0.154,0.308,0.418,0.266c0.264-0.041,0.156-0.469,0.156-0.469l-1.121-4.08
		c0,0-0.108-0.427-0.527-0.35C84.602,47.715,84.702,48.048,84.705,48.146z"/>
	<path fill="#F6D99E" d="M87.622,47.477l0.787,4.239c0,0,0.108,0.321,0.374,0.315c0.265-0.006,0.215-0.44,0.215-0.44l-0.554-4.159
		c0,0-0.048-0.436-0.471-0.413C87.579,47.04,87.632,47.379,87.622,47.477z"/>
	<path fill="#F6D99E" d="M97.756,46.367l0.253,4.305c0,0,0.068,0.333,0.332,0.361c0.264,0.029,0.269-0.41,0.269-0.41l-0.033-4.196
		c0,0,0.004-0.438-0.417-0.471C97.767,45.929,97.779,46.272,97.756,46.367z"/>
	<path fill="#F6D99E" d="M101.055,46.21l0.097,4.314c0,0,0.055,0.336,0.317,0.375c0.264,0.038,0.284-0.4,0.284-0.4l0.119-4.198
		c0,0,0.022-0.438-0.397-0.486C101.082,45.77,101.08,46.116,101.055,46.21z"/>
	<path fill="#F6D99E" d="M104.36,46.24l-0.022,4.315c0,0,0.045,0.337,0.307,0.383c0.262,0.044,0.295-0.392,0.295-0.392l0.235-4.194
		c0,0,0.033-0.438-0.385-0.496C104.398,45.801,104.387,46.146,104.36,46.24z"/>
	<path fill="#F6D99E" d="M108.021,46.237L108,50.552c0,0,0.046,0.338,0.308,0.384c0.261,0.044,0.294-0.392,0.294-0.392l0.234-4.193
		c0,0,0.034-0.438-0.383-0.497C108.06,45.799,108.05,46.144,108.021,46.237z"/>
	<path fill="#F6D99E" d="M111.55,46.378l-0.023,4.315c0,0,0.046,0.337,0.308,0.383c0.261,0.045,0.294-0.391,0.294-0.391l0.234-4.194
		c0,0,0.035-0.438-0.384-0.497C111.587,45.94,111.578,46.286,111.55,46.378z"/>
	<g>
		<path fill="#F6D99E" d="M91.652,50.122c0.009,0.659-0.016,1.355,1.015,1.322c1.447-0.045,0.378-0.02,0.378-0.02
			s1.439,0.161,1.25-1.162c-0.163-1.143-0.234-3.647-0.234-3.647s-0.635-0.476-0.801-0.622c-0.167-0.145-0.568-0.438-0.172-0.874
			c0.396-0.434,0.434-0.537,0.434-0.537s-1.381-1.614-1.45-1.617c-0.069-0.003-0.803,2.047-0.803,2.047s1.123,0.322,0.686,0.927
			c-0.438,0.607-0.685,0.804-0.659,1.014C91.321,47.163,91.652,50.122,91.652,50.122z"/>
		<path fill="#F6D99E" d="M86.382,2.805c-0.101-0.651-0.241-1.333,0.783-1.473c1.435-0.196,0.377-0.044,0.377-0.044
			s1.393-0.399,1.426,0.939c0.028,1.155,0.373,3.638,0.373,3.638s-0.547,0.575-0.688,0.747c-0.139,0.172-0.487,0.527-0.025,0.89
			c0.464,0.364,0.518,0.458,0.518,0.458s-1.095,1.823-1.162,1.838c-0.069,0.014-1.133-1.886-1.133-1.886s1.055-0.506,0.523-1.031
			c-0.532-0.526-0.81-0.68-0.818-0.889C86.545,5.78,86.382,2.805,86.382,2.805z"/>
		<path fill="#F6D99E" d="M120.776,2.636c0.052-0.657,0.075-1.354,1.102-1.249c1.442,0.148,0.376,0.046,0.376,0.046
			s1.448-0.059,1.169,1.249c-0.24,1.131-0.48,3.626-0.48,3.626s-0.666,0.431-0.844,0.563c-0.175,0.133-0.596,0.398-0.229,0.86
			c0.365,0.461,0.396,0.567,0.396,0.567s-1.489,1.514-1.557,1.512c-0.069-0.001-0.663-2.101-0.663-2.101s1.143-0.242,0.747-0.878
			c-0.396-0.636-0.629-0.851-0.59-1.058C120.244,5.567,120.776,2.636,120.776,2.636z"/>
		<path fill="#F6D99E" d="M115.722,50.122c-0.104,0.651-0.249,1.332,0.772,1.479c1.433,0.206,0.376,0.047,0.376,0.047
			s1.39,0.41,1.43-0.928c0.037-1.153,0.396-3.633,0.396-3.633s-0.544-0.58-0.683-0.75c-0.139-0.173-0.484-0.532-0.02-0.89
			c0.465-0.358,0.52-0.454,0.52-0.454s-1.084-1.83-1.151-1.844c-0.067-0.016-1.141,1.875-1.141,1.875s1.051,0.514,0.516,1.034
			c-0.534,0.521-0.813,0.673-0.823,0.883C115.902,47.151,115.722,50.122,115.722,50.122z"/>
	</g>
	<g>
		<path fill="#F6D99E" d="M49.383,15.115l3.3,3.828c0,0,0.259,0.233,0.493,0.09c0.233-0.143-0.03-0.51-0.03-0.51l-3.054-3.878
			c0,0-0.264-0.366-0.627-0.126C49.124,14.743,49.342,15.021,49.383,15.115z"/>
		<path fill="#F6D99E" d="M77.809,51.429l2.842,3.42c0,0,0.26,0.233,0.493,0.09s-0.03-0.51-0.03-0.51l-2.597-3.468
			c0,0-0.263-0.367-0.628-0.126C77.548,51.059,77.768,51.338,77.809,51.429z"/>
		<path fill="#82878B" d="M53.15,19.718l23.962,31.064c0,0-0.23-0.584,0.656-0.485C73.728,44.691,53.938,19.11,53.938,19.11
			S54.225,19.889,53.15,19.718z"/>
	</g>
	<g>
		<path fill="#F6D99E" d="M160.323,15.812l-3.438,3.701c0,0-0.269,0.223-0.496,0.071c-0.228-0.153,0.05-0.51,0.05-0.51l3.194-3.759
			c0,0,0.277-0.357,0.635-0.104C160.598,15.449,160.368,15.72,160.323,15.812z"/>
		<path fill="#F6D99E" d="M130.564,51.025l-2.967,3.309c0,0-0.268,0.223-0.498,0.07c-0.228-0.151,0.051-0.508,0.051-0.508
			l2.723-3.367c0,0,0.277-0.356,0.633-0.103C130.839,50.663,130.608,50.934,130.564,51.025z"/>
		<path fill="#82878B" d="M156.388,20.27l-25.104,30.134c0,0,0.253-0.577-0.637-0.51c4.247-5.448,24.977-30.263,24.977-30.263
			S155.308,20.399,156.388,20.27z"/>
	</g>
	<g>
		<path fill="#82878B" d="M57.521,16.945l21.55,32.571l0.692,0.154L59.049,16.878l-0.93-0.613
			C58.12,16.265,57.835,17.022,57.521,16.945z"/>
		<path fill="#82878B" d="M63.167,14.032l17.531,34.523l0.84,0.319L64.14,13.558l-0.424-0.529
			C63.716,13.029,63.541,14.239,63.167,14.032z"/>
		<path fill="#82878B" d="M68.802,11.438l13.575,36.48l0.802,0.332L69.525,10.827C69.525,10.827,69.044,11.768,68.802,11.438z"/>
		<polygon fill="#82878B" points="90.116,43.843 84.683,8.944 81.388,4.161 83.937,9.403 89.312,43.728 90.321,46.489 		"/>
		<path fill="#82878B" d="M74.876,4.961c0.07,0.248,3.217,3.935,3.217,3.935l8.488,38.314l0.619,0.758L78.54,8.616L74.876,4.961z"/>
		<path fill="#82878B" d="M68.831,7.723c0,0,3.494,3.867,3.733,3.958c0.241,0.091,11.759,35.276,11.759,35.276
			c0.654-0.138-11.324-35.462-11.324-35.462L68.831,7.723z"/>
		<polygon fill="#82878B" points="91.846,8.087 95.096,42.899 95.889,43.338 92.423,7.865 		"/>
		<polygon fill="#82878B" points="96.971,7.556 99.042,43.464 99.92,45.866 99.702,43.164 97.96,7.107 		"/>
		<polygon fill="#82878B" points="101.933,7.021 102.444,43.518 103.501,45.437 102.513,6.717 		"/>
		<polygon fill="#82878B" points="106.565,6.634 106.333,43.511 106.869,44.265 107.219,6.496 		"/>
		<polygon fill="#82878B" points="111.438,6.338 109.71,44.135 110.422,44.571 111.931,6.194 		"/>
		<polygon fill="#82878B" points="116.537,6.46 113.388,45.341 114.184,45.7 117.362,6.084 		"/>
		<path fill="#82878B" d="M124.102,7.741l-4.527,36.869c0,0,0.058,1.35,0.3,1.359c0.243,0.01,5.476-39.076,5.476-39.076
			L124.102,7.741z"/>
		<path fill="#82878B" d="M129.965,9.036l-7.533,38.084c0.558,0.267,8.399-37.479,8.399-37.479L129.965,9.036z"/>
		<path fill="#82878B" d="M135.867,11.393l-11.325,34.64l12.212-34.523C136.753,11.509,136.175,11.814,135.867,11.393z"/>
		<path fill="#82878B" d="M141.147,13.072c0,0-16.199,34.433-16.086,34.204c5.354-10.892,16.441-33.407,16.441-33.407l0.634-1.099
			C142.135,12.77,141.209,13.565,141.147,13.072z"/>
		<polygon fill="#82878B" points="151.126,16.816 128.744,48.32 151.603,17.08 		"/>
		<path fill="#82878B" d="M145.421,13.744L126.32,47.662l19.846-33.541C146.167,14.121,145.265,14.225,145.421,13.744z"/>
	</g>
</g>
<rect x="26.122" y="59.673" fill="none" width="156.675" height="15.131"/>
<text transform="matrix(1 0 0 1 39.8984 67.1709)" fill="#FBB040" font-family="'TrajanPro-Bold'" font-size="11.7141">Mucho Gusto Cafe</text>
</svg>
